<svg width="53" height="53" viewBox="0 0 53 53" fill="none" xmlns="http://www.w3.org/2000/svg">
<path fill-rule="evenodd" clip-rule="evenodd" d="M0 10.6C0 4.74578 4.74578 0 10.6 0H42.4C48.2541 0 53 4.74578 53 10.6V42.4C53 48.2541 48.2541 53 42.4 53H10.6C4.74578 53 0 48.2541 0 42.4V10.6ZM10.6 5.3C7.67289 5.3 5.3 7.67289 5.3 10.6V42.4C5.3 45.3272 7.67289 47.7 10.6 47.7H26.5V29.15H23.85C22.3864 29.15 21.2 27.9636 21.2 26.5C21.2 25.0364 22.3864 23.85 23.85 23.85H26.5V19.875C26.5 14.7526 30.6526 10.6 35.775 10.6H37.365C38.8286 10.6 40.015 11.7865 40.015 13.25C40.015 14.7135 38.8286 15.9 37.365 15.9H35.775C33.5797 15.9 31.8 17.6797 31.8 19.875V23.85H37.365C38.8286 23.85 40.015 25.0364 40.015 26.5C40.015 27.9636 38.8286 29.15 37.365 29.15H31.8V47.7H42.4C45.3272 47.7 47.7 45.3272 47.7 42.4V10.6C47.7 7.67289 45.3272 5.3 42.4 5.3H10.6Z" fill="white"/>
</svg>
