<svg width="202" height="202" viewBox="0 0 202 202" fill="none" xmlns="http://www.w3.org/2000/svg">
<path d="M152.369 165.697C147.244 158.189 145.531 145.307 147.302 140.514L147.655 140.047L148.71 139.465L156.917 135.629C162.908 132.83 166.378 131.387 172.624 129.01C178.03 127.701 180.654 128.583 185.023 131.392C192.101 139.076 187.853 143.162 185.428 150.59C190.79 150.479 193.181 147.739 197.163 141.616C199.998 133.899 199.557 125.821 194.779 119.368C190.001 112.914 184.064 110.345 178.423 109.832C173.418 108.966 168.661 110.092 158.747 113.278L140.346 120.241C119.639 128.486 113.661 119.567 109.579 115.105C109.707 119.067 109.854 121.362 110.103 125.243L110.129 125.642C111.323 133.32 112.337 137.496 114.396 144.853C118.682 159.308 119.624 166.385 118.503 177.173C118.297 180.19 117.689 180.858 116.846 182.552L114.258 186.406L100.991 198.652C105.422 198.956 107.482 198.544 110.944 197.515C114.955 195.84 117.149 194.878 119.739 192.628L125.112 188.629C127.742 186.047 128.64 184.683 131.221 181.626C132.198 180.216 132.679 179.423 133.34 178.004C134.678 175.26 135.105 169.025 136.54 166.193C137.373 167.06 138.403 171.648 139.302 172.72C140.739 174.5 140.661 176.182 142.002 178.033C143.952 180.933 145.194 182.359 148.913 184.297C154.701 187.199 158.269 188.27 167.404 185.412C172.942 182.565 174.886 179.931 176.806 173.855C171.429 176.251 168.829 176.661 164.742 176.156C158.971 174.228 157.495 173.205 152.369 165.697Z" fill="#DFD1D1" stroke="#DFD1D1" stroke-width="5"/>
<path d="M49.5807 36.0526C54.7461 43.5074 56.507 56.3202 54.7461 61.0959L54.3941 61.5618L53.3375 62.1442L45.1198 65.9881C39.1206 68.7937 35.6452 70.2412 29.3888 72.6274C23.9706 73.9472 21.3368 73.0782 16.9449 70.2978C9.82083 62.6741 14.0675 58.5941 16.4753 51.1951C11.0976 51.3227 8.70892 54.0575 4.73552 60.1641C1.91826 67.8518 2.38771 75.8889 7.20082 82.2953C12.0139 88.7017 17.9771 91.238 23.6362 91.7302C28.6593 92.5758 33.4259 91.4398 43.3587 88.2358L61.7898 81.247C82.5301 72.9739 88.5561 81.8294 92.6649 86.2557C92.5229 82.314 92.3676 80.0304 92.1049 76.1693L92.0779 75.7724C90.855 68.1361 89.8237 63.9836 87.7343 56.6696C83.3879 42.2992 82.4191 35.2595 83.508 24.5211C83.7041 21.5176 84.3118 20.851 85.1516 19.163L87.7343 15.3191L101 3.08864C96.5545 2.8015 94.4898 3.21777 91.0214 4.25344C87.0046 5.93356 84.8074 6.89756 82.2167 9.14562L77.873 13.3389C75.2439 15.9164 73.7599 17.2771 71.1815 20.3277C70.207 21.7345 69.7266 22.5244 69.0684 23.9387C67.7365 26.6739 66.9763 28.2207 65.5465 31.044C64.7077 30.1836 64.2217 29.6615 63.316 28.5979C61.8693 26.8313 61.1457 25.7758 59.7941 23.9387C57.8289 21.0597 56.7213 19.4486 52.9852 17.5322C47.1707 14.6635 43.5886 13.6096 34.4366 16.4839C28.891 19.3346 26.951 21.9627 25.045 28.0155C30.4296 25.6126 33.0359 25.1962 37.1367 25.6859C42.9309 27.5852 44.4153 28.5979 49.5807 36.0526Z" fill="#DFD1D1" stroke="#DFD1D1" stroke-width="5"/>
<path d="M165.576 51.1054C158.038 56.2181 145.081 57.961 140.251 56.2181L139.78 55.8697L139.191 54.8239L135.304 46.69C132.467 40.7521 131.003 37.3121 128.59 31.1195C127.256 25.7566 128.134 23.1497 130.946 18.8026C138.655 11.7512 142.781 15.9546 150.263 18.3378C150.134 13.015 147.369 10.6507 141.194 6.7178C133.42 3.92929 125.292 4.39395 118.814 9.15796C112.335 13.922 109.771 19.8243 109.273 25.4257C108.418 30.3975 109.567 35.1154 112.806 44.9469L119.874 63.1899C128.24 83.7186 119.285 89.683 114.809 93.75C118.795 93.6094 121.104 93.4556 125.009 93.1957L125.41 93.169C133.132 91.9585 137.331 90.9378 144.727 88.8696C159.259 84.5676 166.378 83.6087 177.237 84.6865C180.274 84.8806 180.948 85.4821 182.655 86.3133L186.542 88.8697L198.91 102C199.201 97.5999 198.78 95.5563 197.732 92.1232C196.033 88.1475 195.059 85.9726 192.785 83.4084L188.743 78.0884C186.137 75.4861 184.761 74.5983 181.676 72.0461C180.253 71.0816 179.455 70.6061 178.024 69.9546C175.258 68.6363 168.983 68.2324 166.128 66.8172C166.998 65.987 171.611 64.9501 172.686 64.0536C174.473 62.6217 176.167 62.6937 178.024 61.3559C180.936 59.4108 182.367 58.1731 184.304 54.4751C187.205 48.72 188.271 45.1744 185.365 36.1159C182.482 30.6268 179.824 28.7066 173.703 26.82C176.133 32.1497 176.554 34.7295 176.059 38.7884C174.139 44.5235 173.115 45.9927 165.576 51.1054Z" fill="#DFD1D1" stroke="#DFD1D1" stroke-width="5"/>
<path d="M39.4434 152.669C46.937 147.522 59.8135 145.772 64.6118 147.53L65.0799 147.881L65.6647 148.935L69.5238 157.13C72.3406 163.113 73.7937 166.579 76.1889 172.818C77.5127 178.221 76.6383 180.847 73.8423 185.225C66.178 192.325 62.0798 188.089 54.6456 185.685C54.7715 191.047 57.5186 193.43 63.6534 197.394C71.3776 200.206 79.4544 199.742 85.8944 194.946C92.3344 190.15 94.8857 184.205 95.3829 178.563C96.2348 173.555 95.0953 168.801 91.88 158.896L84.865 140.516C76.5604 119.833 85.462 113.828 89.9118 109.734C85.9507 109.873 83.6558 110.027 79.7756 110.287L79.3768 110.314C71.7025 111.53 67.5292 112.557 60.1784 114.637C45.7355 118.964 38.6608 119.927 27.8701 118.836C24.852 118.639 24.1824 118.033 22.4864 117.195L18.6249 114.618L6.34018 101.386C6.04968 105.818 6.46708 107.877 7.50631 111.336C9.19291 115.342 10.1607 117.533 12.4186 120.117L16.4332 125.478C19.0221 128.1 20.3892 128.995 23.4536 131.568C24.8668 132.54 25.6604 133.019 27.0813 133.676C29.8294 135.005 36.0657 135.415 38.9022 136.842C38.0372 137.678 33.4524 138.72 32.3831 139.623C30.6072 141.064 28.9242 140.991 27.0775 142.338C24.1835 144.296 22.761 145.542 20.8336 149.267C17.9482 155.063 16.8875 158.634 19.7719 167.76C22.6342 173.291 25.2743 175.227 31.356 177.13C28.9437 171.76 28.5264 169.161 29.0202 165.072C30.9314 159.296 31.9498 157.816 39.4434 152.669Z" fill="#DFD1D1" stroke="#DFD1D1" stroke-width="5"/>
</svg>
